<svg width="100%" height="100%" id="svg" viewBox="0 0 1440 590" xmlns="http://www.w3.org/2000/svg" class="transition duration-300 ease-in-out delay-150"><path d="M 0,600 L 0,112 C 67.29989694263139,131.1178289247681 134.59979388526278,150.23565784953624 203,149 C 271.4002061147372,147.76434215046376 340.9007214015802,126.17519752662314 417,125 C 493.0992785984198,123.82480247337686 575.7973205084163,143.06355204397116 639,136 C 702.2026794915837,128.93644795602884 745.9099965647546,95.57059429749226 806,85 C 866.0900034352454,74.42940570250774 942.5626932325661,86.65407076605977 1025,105 C 1107.437306767434,123.34592923394023 1195.839230504981,147.81312263826865 1266,150 C 1336.160769495019,152.18687736173135 1388.0803847475095,132.0934386808657 1440,112 L 1440,600 L 0,600 Z" stroke="none" stroke-width="0" fill="#5f879c" fill-opacity="0.4" class="transition-all duration-300 ease-in-out delay-150 path-0"></path><path d="M 0,600 L 0,262 C 53.422191686705574,267.389900377877 106.84438337341115,272.779800755754 177,264 C 247.15561662658885,255.22019924424598 334.0446581930609,232.27069735486086 409,221 C 483.9553418069391,209.72930264513914 546.9769838543455,210.1374098248025 605,232 C 663.0230161456545,253.8625901751975 716.047406389557,297.1796633459292 788,289 C 859.952593610443,280.8203366540708 950.833390587427,221.14393679148057 1036,223 C 1121.166609412573,224.85606320851943 1200.619031260735,288.2445894881484 1267,305 C 1333.380968739265,321.7554105118516 1386.6904843696325,291.8777052559258 1440,262 L 1440,600 L 0,600 Z" stroke="none" stroke-width="0" fill="#5f879c" fill-opacity="0.53" class="transition-all duration-300 ease-in-out delay-150 path-1"></path><path d="M 0,600 L 0,412 C 75.2318790793542,388.29062177945724 150.4637581587084,364.5812435589145 223,374 C 295.5362418412916,383.4187564410855 365.37684644452077,425.96564754379943 433,438 C 500.62315355547923,450.03435245620057 566.0288560632085,431.556166265888 622,411 C 677.9711439367915,390.443833734112 724.5077293026452,367.8096873926485 790,383 C 855.4922706973548,398.1903126073515 939.9402267262108,451.20508416351777 1020,466 C 1100.0597732737892,480.79491583648223 1175.7313637925113,457.36997595328063 1245,442 C 1314.2686362074887,426.63002404671937 1377.1343181037444,419.3150120233597 1440,412 L 1440,600 L 0,600 Z" stroke="none" stroke-width="0" fill="#5f879c" fill-opacity="1" class="transition-all duration-300 ease-in-out delay-150 path-2"></path></svg>