
<svg width="100%" height="100%" id="svg" viewBox="0 0 1440 590" xmlns="http://www.w3.org/2000/svg" class="transition duration-300 ease-in-out delay-150"><path d="M 0,600 L 0,90 C 53.07151920484284,93.16123873218959 106.14303840968569,96.32247746437918 152,94 C 197.8569615903143,91.67752253562082 236.49936556610004,83.87132887467287 289,70 C 341.50063443389996,56.12867112532713 407.85949932591404,36.19220703692933 450,52 C 492.14050067408596,67.80779296307067 510.06263713024384,119.35984297760976 552,132 C 593.9373628697562,144.64015702239024 659.88995215311,118.36842105263158 717,114 C 774.11004784689,109.63157894736842 822.3775542573158,127.16647281186391 865,121 C 907.6224457426842,114.83352718813609 944.5998308176268,84.96568769991275 988,85 C 1031.4001691823732,85.03431230008725 1081.2231224721775,114.97077638848502 1130,115 C 1178.7768775278225,115.02922361151498 1226.5076792936636,85.15120674614714 1278,76 C 1329.4923207063364,66.84879325385286 1384.7461603531683,78.42439662692644 1440,90 L 1440,600 L 0,600 Z" stroke="none" stroke-width="0" fill="#396c84" fill-opacity="0.265" class="transition-all duration-300 ease-in-out delay-150 path-0"></path><path d="M 0,600 L 0,210 C 41.72509186074174,190.6578022152317 83.45018372148348,171.31560443046342 133,178 C 182.54981627851652,184.68439556953658 239.92435697480772,217.3953844933781 289,223 C 338.0756430251923,228.6046155066219 378.8523883792857,207.10285759602422 420,214 C 461.1476116207143,220.89714240397578 502.66608950804937,256.19318512252505 556,251 C 609.3339104919506,245.80681487747492 674.4832535885167,200.1244019138756 733,190 C 791.5167464114833,179.8755980861244 843.4008961378837,205.30920722197257 887,201 C 930.5991038621163,196.69079277802743 965.9131618599488,162.63876919823417 1010,169 C 1054.0868381400512,175.36123080176583 1106.9464564223213,222.13571598509083 1149,227 C 1191.0535435776787,231.86428401490917 1222.3010124507655,194.8183668614026 1269,185 C 1315.6989875492345,175.1816331385974 1377.8494937746173,192.59081656929868 1440,210 L 1440,600 L 0,600 Z" stroke="none" stroke-width="0" fill="#396c84" fill-opacity="0.4" class="transition-all duration-300 ease-in-out delay-150 path-1"></path><path d="M 0,600 L 0,330 C 42.26774432313833,320.36153480134294 84.53548864627666,310.7230696026858 130,321 C 175.46451135372334,331.2769303973142 224.12578973803164,361.46925639059975 281,372 C 337.87421026196836,382.53074360940025 402.96135240159674,373.399904834915 453,371 C 503.03864759840326,368.600095165085 538.0288006555817,372.93112426974017 580,371 C 621.9711993444183,369.06887573025983 670.9234449760764,360.87559808612446 716,347 C 761.0765550239236,333.12440191387554 802.2774194401121,313.56648338576224 858,319 C 913.7225805598879,324.43351661423776 983.966877263475,354.85846837082664 1027,360 C 1070.033122736525,365.14153162917336 1085.8550715059876,344.9996431309313 1133,335 C 1180.1449284940124,325.0003568690687 1258.612836712575,325.1429591054482 1315,326 C 1371.387163287425,326.8570408945518 1405.6935816437126,328.4285204472759 1440,330 L 1440,600 L 0,600 Z" stroke="none" stroke-width="0" fill="#396c84" fill-opacity="0.53" class="transition-all duration-300 ease-in-out delay-150 path-2"></path><path d="M 0,600 L 0,450 C 51.45992492532183,434.94329747019486 102.91984985064366,419.8865949403897 154,421 C 205.08015014935634,422.1134050596103 255.78052552274715,439.3969177086361 304,448 C 352.21947447725285,456.6030822913639 397.958048058368,456.52573422506555 444,469 C 490.041951941632,481.47426577493445 536.3872822437812,506.500145391102 579,494 C 621.6127177562188,481.499854608898 660.4928229665072,431.4736842105263 708,428 C 755.5071770334928,424.5263157894737 811.64142589019,467.60511776679266 863,465 C 914.35857410981,462.39488223320734 960.9414734727327,414.105844722303 1006,418 C 1051.0585265272673,421.894155277697 1094.5926802188797,477.9715033439954 1139,478 C 1183.4073197811203,478.0284966560046 1228.687805651749,422.0081419017156 1279,408 C 1329.312194348251,393.9918580982844 1384.6560971741255,421.9959290491422 1440,450 L 1440,600 L 0,600 Z" stroke="none" stroke-width="0" fill="#396c84" fill-opacity="1" class="transition-all duration-300 ease-in-out delay-150 path-3"></path></svg>
